User Type,Username,Date,Text
,afgaviria,2010-11-05T17:10Z,"amazing!!! thanks alot, i wil buy it anyway as soon as it arrives to my country."
,afgaviria,2010-11-09T01:34Z,"is perfect, no problems at all. thanks.

Video
ID                               : 224 (0xE0)
Format                           : MPEG Video
Format version                   : Version 2
Format profile                   : Main@Main
Format settings, BVOP            : Yes
Format settings, Matrix          : Default
Format settings, GOP             : M=3, N=15
Duration                         : 28mn 39s
Bit rate mode                    : Variable
Bit rate                         : 3 360 Kbps
Nominal bit rate                 : 8 100 Kbps
Width                            : 720 pixels
Height                           : 480 pixels
Display aspect ratio             : 16:9
Frame rate                       : 29.970 fps
Standard                         : NTSC
Color space                      : YUV
Chroma subsampling               : 4:2:0
Bit depth                        : 8 bits
Scan type                        : Progressive
Bits/(Pixel*Frame)               : 0.324
Stream size                      : 689 MiB (67%)

Audio
ID                               : 160 (0xA0)
Format                           : PCM
Format settings, Endianness      : Big
Format settings, Sign            : Signed
Muxing mode                      : DVD-Video
Duration                         : 28mn 39s
Bit rate mode                    : Constant
Bit rate                         : 1 536 Kbps
Channel(s)                       : 2 channels
Channel positions                : Front: L R
Sampling rate                    : 48.0 KHz
Bit depth                        : 16 bits
Stream size                      : 315 MiB (31%)"
,spec81,2010-11-16T19:01Z,ya u r welcome ppl these guys rock
,jayman.vc,2011-02-07T16:56Z,plz seed guys cant wait for this! stuck at 62%
,bielecki,2012-01-21T12:11Z,"Hey guys, how can i watch this on my dvd player?"
,spec81,2012-02-26T23:16Z,if u search htd vs htd u will find haste the day vs haste the day live dvd
